<svg xmlns="http://www.w3.org/2000/svg" viewBox="0 0 1200 900" role="img" aria-label="Time and Big Numbers overview">
  <rect width="1200" height="900" fill="#fff7ed"/>
  <g font-family="Arial, Helvetica, sans-serif" text-anchor="middle">
    <text x="600" y="58" font-size="36" font-weight="700" fill="#1f2937">Time &amp; Big Numbers</text>
    <text x="600" y="94" font-size="24" fill="#475569">时间和大数字</text>
  </g>
  <g stroke="#1f2937" stroke-width="4" stroke-linecap="round" stroke-linejoin="round">
    <g transform="translate(40 130)">
      <rect width="250" height="180" rx="26" fill="#dbeafe" stroke="#60a5fa"/>
      <circle cx="125" cy="78" r="45" fill="#ffffff"/>
      <path d="M125 78V48M125 78l25 16"/>
      <text x="125" y="145" font-family="Arial" font-size="28" font-weight="700" text-anchor="middle" fill="#1d4ed8" stroke="none">hour</text>
      <text x="125" y="172" font-family="Arial" font-size="22" text-anchor="middle" fill="#1e3a8a" stroke="none">小时</text>
    </g>
    <g transform="translate(330 130)">
      <rect width="250" height="180" rx="26" fill="#dcfce7" stroke="#4ade80"/>
      <circle cx="125" cy="76" r="42" fill="#ffffff"/>
      <path d="M89 76h72M125 40v72"/>
      <text x="125" y="145" font-family="Arial" font-size="28" font-weight="700" text-anchor="middle" fill="#15803d" stroke="none">minute</text>
      <text x="125" y="172" font-family="Arial" font-size="22" text-anchor="middle" fill="#166534" stroke="none">分钟</text>
    </g>
    <g transform="translate(620 130)">
      <rect width="250" height="180" rx="26" fill="#fee2e2" stroke="#fb7185"/>
      <circle cx="125" cy="76" r="38" fill="#ffffff"/>
      <path d="M125 76l20-24M125 76h-30M125 31v-18M104 13h42"/>
      <text x="125" y="145" font-family="Arial" font-size="28" font-weight="700" text-anchor="middle" fill="#be123c" stroke="none">second</text>
      <text x="125" y="172" font-family="Arial" font-size="22" text-anchor="middle" fill="#9f1239" stroke="none">秒</text>
    </g>
    <g transform="translate(910 130)">
      <rect width="250" height="180" rx="26" fill="#fef3c7" stroke="#fbbf24"/>
      <text x="125" y="86" font-family="Arial" font-size="58" font-weight="800" text-anchor="middle" fill="#b45309" stroke="none">100</text>
      <circle cx="77" cy="105" r="10" fill="#f59e0b"/><circle cx="104" cy="105" r="10" fill="#f59e0b"/><circle cx="131" cy="105" r="10" fill="#f59e0b"/><circle cx="158" cy="105" r="10" fill="#f59e0b"/>
      <text x="125" y="145" font-family="Arial" font-size="28" font-weight="700" text-anchor="middle" fill="#92400e" stroke="none">hundred</text>
      <text x="125" y="172" font-family="Arial" font-size="22" text-anchor="middle" fill="#78350f" stroke="none">百</text>
    </g>
    <g transform="translate(40 360)">
      <rect width="250" height="180" rx="26" fill="#ede9fe" stroke="#a78bfa"/>
      <text x="125" y="86" font-family="Arial" font-size="58" font-weight="800" text-anchor="middle" fill="#6d28d9" stroke="none">1,000</text>
      <rect x="82" y="100" width="86" height="18" rx="6" fill="#8b5cf6"/><rect x="70" y="122" width="110" height="18" rx="6" fill="#a78bfa"/>
      <text x="125" y="145" font-family="Arial" font-size="28" font-weight="700" text-anchor="middle" fill="#5b21b6" stroke="none">thousand</text>
      <text x="125" y="172" font-family="Arial" font-size="22" text-anchor="middle" fill="#4c1d95" stroke="none">千</text>
    </g>
    <g transform="translate(330 360)">
      <rect width="250" height="180" rx="26" fill="#ccfbf1" stroke="#2dd4bf"/>
      <text x="125" y="82" font-family="Arial" font-size="48" font-weight="800" text-anchor="middle" fill="#0f766e" stroke="none">1,000,000</text>
      <path d="M84 112c28-36 54 36 82 0" fill="none" stroke="#14b8a6"/>
      <text x="125" y="145" font-family="Arial" font-size="28" font-weight="700" text-anchor="middle" fill="#0f766e" stroke="none">million</text>
      <text x="125" y="172" font-family="Arial" font-size="22" text-anchor="middle" fill="#115e59" stroke="none">百万</text>
    </g>
    <g transform="translate(620 360)">
      <rect width="250" height="180" rx="26" fill="#e0f2fe" stroke="#38bdf8"/>
      <text x="125" y="82" font-family="Arial" font-size="40" font-weight="800" text-anchor="middle" fill="#0369a1" stroke="none">1,000,000,000</text>
      <path d="M76 111c35-28 66-28 98 0M94 124c22-16 42-16 62 0" fill="none" stroke="#0ea5e9"/>
      <text x="125" y="145" font-family="Arial" font-size="28" font-weight="700" text-anchor="middle" fill="#075985" stroke="none">billion</text>
      <text x="125" y="172" font-family="Arial" font-size="22" text-anchor="middle" fill="#0c4a6e" stroke="none">十亿</text>
    </g>
    <g transform="translate(910 360)">
      <rect width="250" height="180" rx="26" fill="#fce7f3" stroke="#f472b6"/>
      <path d="M82 75h86M82 105h86M82 135h86" stroke="#be185d"/>
      <circle cx="65" cy="75" r="9" fill="#ec4899"/><circle cx="65" cy="105" r="9" fill="#ec4899"/><circle cx="65" cy="135" r="9" fill="#ec4899"/>
      <text x="125" y="162" font-family="Arial" font-size="24" font-weight="700" text-anchor="middle" fill="#9d174d" stroke="none">4 sentences</text>
    </g>
  </g>
</svg>
